<svg width="24" height="18" viewBox="0 0 24 18" fill="none" xmlns="http://www.w3.org/2000/svg">
<path fill-rule="evenodd" clip-rule="evenodd" d="M6 17H7C7.55228 17 8 16.5523 8 16V2C8 1.44771 7.55229 1 7 1H6C5.44771 1 5 1.44771 5 2V5V13V16C5 16.5523 5.44772 17 6 17ZM4 14.7324V16C4 17.1046 4.89543 18 6 18H7C8.10457 18 9 17.1046 9 16V10H15V16C15 17.1046 15.8954 18 17 18H18C19.1046 18 20 17.1046 20 16V14.7324C20.2942 14.9026 20.6357 15 21 15C22.1046 15 23 14.1046 23 13V11H24V10V8V7H23V5C23 3.89543 22.1046 3 21 3C20.6357 3 20.2942 3.09739 20 3.26756V2C20 0.89543 19.1046 0 18 0H17C15.8954 0 15 0.89543 15 2V8H9V2C9 0.89543 8.10457 0 7 0H6C4.89543 0 4 0.89543 4 2V3.26756C3.70583 3.09739 3.36429 3 3 3C1.89543 3 1 3.89543 1 5V7H0V8V10V11H1V13C1 14.1046 1.89543 15 3 15C3.36429 15 3.70583 14.9026 4 14.7324ZM19 5V13V16C19 16.5523 18.5523 17 18 17H17C16.4477 17 16 16.5523 16 16V2C16 1.44771 16.4477 1 17 1H18C18.5523 1 19 1.44771 19 2V5ZM21 14C20.4477 14 20 13.5523 20 13V5C20 4.44772 20.4477 4 21 4C21.5523 4 22 4.44772 22 5V13C22 13.5523 21.5523 14 21 14ZM4 13V5C4 4.44772 3.55228 4 3 4C2.44772 4 2 4.44772 2 5V13C2 13.5523 2.44772 14 3 14C3.55228 14 4 13.5523 4 13Z" fill="#AEAEAE"/>
</svg>
