<svg xmlns="http://www.w3.org/2000/svg" width="24" height="24" viewBox="0 0 24 24" fill="none">
  <path
    d="M17.8083 3.21373C18.0933 2.92876 18.5553 2.92876 18.8403 3.21373L20.7863 5.15968C21.0712 5.44465 21.0712 5.90669 20.7863 6.19167L12.0295 14.9484C11.9741 15.0039 11.91 15.05 11.8399 15.0851L7.94798 17.0311C7.66704 17.1715 7.32774 17.1165 7.10564 16.8944C6.88354 16.6723 6.82848 16.333 6.96895 16.052L8.91489 12.1601C8.94997 12.09 8.99612 12.0259 9.05158 11.9705L17.8083 3.21373Z"
    fill="#1D1D1D"
  />
  <path
    d="M3.72973 3.97297C3.32671 3.97297 3 4.29968 3 4.7027V20.2703C3 20.6733 3.32671 21 3.72973 21H19.2973C19.7003 21 20.027 20.6733 20.027 20.2703V13.4594C20.027 13.0564 19.7003 12.7297 19.2973 12.7297C18.8943 12.7297 18.5675 13.0564 18.5675 13.4594V19.5405H4.45946V5.43243H10.5405C10.9435 5.43243 11.2703 5.10572 11.2703 4.7027C11.2703 4.29968 10.9435 3.97297 10.5405 3.97297H3.72973Z"
    fill="#1D1D1D"
  />
</svg>