<svg xmlns="http://www.w3.org/2000/svg" width="101" height="100" viewBox="0 0 101 100" fill="none">
  <g clip-path="url(#clip0_18_56043)">
    <path d="M73.294 35H26.706C25.2115 35 24 36.2115 24 37.706V62.0101C24 63.5046 25.2115 64.7161 26.706 64.7161H73.294C74.7885 64.7161 76 63.5046 76 62.0101V37.706C76 36.2115 74.7885 35 73.294 35Z" fill="#E2E2E2"/>
    <path d="M61.7001 63.4688H60.4531V64.7158H61.7001V63.4688Z" fill="white"/>
    <path d="M61.7001 60.9883H60.4531V58.5192H61.7001V60.9883ZM61.7001 56.0377H60.4531V53.5686H61.7001V56.0377ZM61.7001 51.0871H60.4531V48.618H61.7001V51.0871ZM61.7001 46.1365H60.4531V43.6674H61.7001V46.1365ZM61.7001 41.1859H60.4531V38.7168H61.7001V41.1859Z" fill="white"/>
    <path d="M61.7001 35H60.4531V36.247H61.7001V35Z" fill="white"/>
    <path d="M33 49C35.7614 49 38 46.7614 38 44C38 41.2386 35.7614 39 33 39C30.2386 39 28 41.2386 28 44C28 46.7614 30.2386 49 33 49Z" fill="white"/>
    <circle cx="50.5" cy="50" r="49" stroke="#E7E7E7" stroke-width="2" stroke-dasharray="4 4"/>
  </g>
  <defs>
    <clipPath id="clip0_18_56043">
      <rect width="100" height="100" fill="white" transform="translate(0.5)"/>
    </clipPath>
  </defs>
</svg>