<svg xmlns="http://www.w3.org/2000/svg" width="40" height="40" viewBox="0 0 40 40" fill="none">
  <circle cx="20" cy="20" r="20" fill="#F4F4F4"/>
  <path d="M32 18.0001V14.0001C32 12.9001 31.1 12.0001 30 12.0001H10C8.9 12.0001 8.01 12.9001 8.01 14.0001V18.0001C9.11 18.0001 10 18.9001 10 20.0001C10 21.1001 9.11 22.0001 8 22.0001V26.0001C8 27.1001 8.9 28.0001 10 28.0001H30C31.1 28.0001 32 27.1001 32 26.0001V22.0001C30.9 22.0001 30 21.1001 30 20.0001C30 18.9001 30.9 18.0001 32 18.0001ZM30 16.5401C28.81 17.2301 28 18.5301 28 20.0001C28 21.4701 28.81 22.7701 30 23.4601V26.0001H10V23.4601C11.19 22.7701 12 21.4701 12 20.0001C12 18.5201 11.2 17.2301 10.01 16.5401L10 14.0001H30V16.5401Z" fill="#CFCFCF"/>
  <path d="M17 24H19V16H17V24ZM21 16V24H23V16H21Z" fill="#CFCFCF"/>
</svg>